<svg width="118" height="119" viewBox="0 0 118 119" fill="none" xmlns="http://www.w3.org/2000/svg">
<path d="M20.8129 41.0415C20.8129 41.0415 2.81284 42.0412 2.81293 41.0415C2.81302 40.0417 -5.88707 57.2415 7.31293 80.0415C20.5129 102.841 46.8129 108.208 58.3129 108.041C60.9796 106.375 60.7129 99.6415 38.3129 86.0415C15.9129 72.4415 17.3129 50.3748 20.8129 41.0415Z" fill="#FFFAD1"/>
<ellipse cx="56.5" cy="54.5" rx="37.5" ry="36.5" fill="#F5F7FB"/>
<path d="M2.50011 41.5C3.30011 42.7 15.8334 42 22.0001 41.5C24.3334 34.8333 33.5 20.8 51.5 18C69.5 15.2 83 27.5 87.5 34C94.8333 35 108.7 35.6 105.5 30C101.5 23 87.0001 -2 50.0001 0.500001C13.0001 3 1.50011 40 2.50011 41.5Z" fill="#DEEBF8"/>
<path d="M105 33C102.2 35.8 92.1667 34.8333 87.5 34H86.5C90 38 97.7 45.5 92.5 65.5C87.3 85.5 66.3333 90.8333 56.5 91C60.3333 95.8333 69.7 105.3 76.5 104.5C85 103.5 105 86 109.5 70C114 54 108.5 29.5 105 33Z" fill="#4D5B9E"/>
<path d="M65.3728 90.3551C68.0979 91.0906 78.3202 85.6536 83.2854 82.7221L112.532 113.282C107.137 115.088 96.6763 117.749 97.987 113.949C99.4623 109.671 69.4075 92.5134 65.3728 90.3551C65.2568 90.3237 65.1543 90.2812 65.0665 90.2268C64.7988 90.0612 64.9268 90.1165 65.3728 90.3551Z" fill="#FFFAD1"/>
</svg>
